<mxfile><diagram id="LX3NrVUi2IdloEImj4LN" name="Page-1"><mxGraphModel dx="1575" dy="1713" grid="1" gridSize="10" guides="1" tooltips="1" connect="1" arrows="1" fold="1" page="1" pageScale="1" pageWidth="850" pageHeight="1100" math="0" shadow="0"><root><mxCell id="0"/><mxCell id="1" parent="0"/><mxCell id="129" style="edgeStyle=none;html=1;fontSize=11;" parent="1" target="403" edge="1"><mxGeometry relative="1" as="geometry"><mxPoint x="-220" y="-100" as="targetPoint"/><Array as="points"/><mxPoint x="-350" y="-172" as="sourcePoint"/></mxGeometry></mxCell><mxCell id="131" value="one to one" style="edgeLabel;html=1;align=center;verticalAlign=middle;resizable=0;points=[];fontSize=11;" parent="129" vertex="1" connectable="0"><mxGeometry x="-0.1179" y="-3" relative="1" as="geometry"><mxPoint x="18" y="-24" as="offset"/></mxGeometry></mxCell><mxCell id="24" value="" style="shape=table;startSize=0;container=1;collapsible=0;childLayout=tableLayout;" parent="1" vertex="1"><mxGeometry x="-550" y="-280" width="200" height="240" as="geometry"/></mxCell><mxCell id="25" value="" style="shape=tableRow;horizontal=0;startSize=0;swimlaneHead=0;swimlaneBody=0;top=0;left=0;bottom=0;right=0;collapsible=0;dropTarget=0;fillColor=#1ba1e2;points=[[0,0.5],[1,0.5]];portConstraint=eastwest;fontColor=#ffffff;strokeColor=#006EAF;" parent="24" vertex="1"><mxGeometry width="200" height="40" as="geometry"/></mxCell><mxCell id="26" value="pengguna" style="shape=partialRectangle;html=1;whiteSpace=wrap;connectable=0;overflow=hidden;fillColor=none;top=0;left=0;bottom=0;right=0;pointerEvents=1;" parent="25" vertex="1"><mxGeometry width="200" height="40" as="geometry"><mxRectangle width="200" height="40" as="alternateBounds"/></mxGeometry></mxCell><mxCell id="27" value="" style="shape=tableRow;horizontal=0;startSize=0;swimlaneHead=0;swimlaneBody=0;top=0;left=0;bottom=0;right=0;collapsible=0;dropTarget=0;fillColor=none;points=[[0,0.5],[1,0.5]];portConstraint=eastwest;" parent="24" vertex="1"><mxGeometry y="40" width="200" height="40" as="geometry"/></mxCell><mxCell id="28" value="ID_Pengguna (Primary Key)" style="shape=partialRectangle;html=1;whiteSpace=wrap;connectable=0;overflow=hidden;fillColor=none;top=0;left=0;bottom=0;right=0;pointerEvents=1;" parent="27" vertex="1"><mxGeometry width="200" height="40" as="geometry"><mxRectangle width="200" height="40" as="alternateBounds"/></mxGeometry></mxCell><mxCell id="29" value="" style="shape=tableRow;horizontal=0;startSize=0;swimlaneHead=0;swimlaneBody=0;top=0;left=0;bottom=0;right=0;collapsible=0;dropTarget=0;fillColor=none;points=[[0,0.5],[1,0.5]];portConstraint=eastwest;" parent="24" vertex="1"><mxGeometry y="80" width="200" height="40" as="geometry"/></mxCell><mxCell id="30" value="Nama" style="shape=partialRectangle;html=1;whiteSpace=wrap;connectable=0;overflow=hidden;fillColor=none;top=0;left=0;bottom=0;right=0;pointerEvents=1;" parent="29" vertex="1"><mxGeometry width="200" height="40" as="geometry"><mxRectangle width="200" height="40" as="alternateBounds"/></mxGeometry></mxCell><mxCell id="31" value="" style="shape=tableRow;horizontal=0;startSize=0;swimlaneHead=0;swimlaneBody=0;top=0;left=0;bottom=0;right=0;collapsible=0;dropTarget=0;fillColor=none;points=[[0,0.5],[1,0.5]];portConstraint=eastwest;" parent="24" vertex="1"><mxGeometry y="120" width="200" height="40" as="geometry"/></mxCell><mxCell id="32" value="Username" style="shape=partialRectangle;html=1;whiteSpace=wrap;connectable=0;overflow=hidden;fillColor=none;top=0;left=0;bottom=0;right=0;pointerEvents=1;" parent="31" vertex="1"><mxGeometry width="200" height="40" as="geometry"><mxRectangle width="200" height="40" as="alternateBounds"/></mxGeometry></mxCell><mxCell id="33" value="" style="shape=tableRow;horizontal=0;startSize=0;swimlaneHead=0;swimlaneBody=0;top=0;left=0;bottom=0;right=0;collapsible=0;dropTarget=0;fillColor=none;points=[[0,0.5],[1,0.5]];portConstraint=eastwest;" parent="24" vertex="1"><mxGeometry y="160" width="200" height="40" as="geometry"/></mxCell><mxCell id="34" value="Password" style="shape=partialRectangle;html=1;whiteSpace=wrap;connectable=0;overflow=hidden;fillColor=none;top=0;left=0;bottom=0;right=0;pointerEvents=1;" parent="33" vertex="1"><mxGeometry width="200" height="40" as="geometry"><mxRectangle width="200" height="40" as="alternateBounds"/></mxGeometry></mxCell><mxCell id="35" value="" style="shape=tableRow;horizontal=0;startSize=0;swimlaneHead=0;swimlaneBody=0;top=0;left=0;bottom=0;right=0;collapsible=0;dropTarget=0;fillColor=none;points=[[0,0.5],[1,0.5]];portConstraint=eastwest;" parent="24" vertex="1"><mxGeometry y="200" width="200" height="40" as="geometry"/></mxCell><mxCell id="36" value="Role (siswa, admin , &lt;br&gt;&lt;span style=&quot;white-space: pre;&quot;&gt;&#9;&lt;/span&gt;&amp;nbsp; super admin )" style="shape=partialRectangle;html=1;whiteSpace=wrap;connectable=0;overflow=hidden;fillColor=none;top=0;left=0;bottom=0;right=0;pointerEvents=1;" parent="35" vertex="1"><mxGeometry width="200" height="40" as="geometry"><mxRectangle width="200" height="40" as="alternateBounds"/></mxGeometry></mxCell><mxCell id="VkJ5TcABdocI_Z8cLHhA-128" style="edgeStyle=none;html=1;fontSize=13;" parent="1" source="37" target="58" edge="1"><mxGeometry relative="1" as="geometry"/></mxCell><mxCell id="37" value="" style="shape=table;startSize=0;container=1;collapsible=0;childLayout=tableLayout;" parent="1" vertex="1"><mxGeometry x="-535" y="50" width="180" height="200" as="geometry"/></mxCell><mxCell id="38" value="" style="shape=tableRow;horizontal=0;startSize=0;swimlaneHead=0;swimlaneBody=0;top=0;left=0;bottom=0;right=0;collapsible=0;dropTarget=0;fillColor=none;points=[[0,0.5],[1,0.5]];portConstraint=eastwest;" parent="37" vertex="1"><mxGeometry width="180" height="40" as="geometry"/></mxCell><mxCell id="39" value="&lt;font style=&quot;font-size: 14px;&quot;&gt;Mata Pelajaran&lt;/font&gt;" style="shape=partialRectangle;html=1;whiteSpace=wrap;connectable=0;overflow=hidden;fillColor=#1ba1e2;top=0;left=0;bottom=0;right=0;pointerEvents=1;fontColor=#ffffff;strokeColor=#006EAF;" parent="38" vertex="1"><mxGeometry width="180" height="40" as="geometry"><mxRectangle width="180" height="40" as="alternateBounds"/></mxGeometry></mxCell><mxCell id="40" value="" style="shape=tableRow;horizontal=0;startSize=0;swimlaneHead=0;swimlaneBody=0;top=0;left=0;bottom=0;right=0;collapsible=0;dropTarget=0;fillColor=none;points=[[0,0.5],[1,0.5]];portConstraint=eastwest;" parent="37" vertex="1"><mxGeometry y="40" width="180" height="40" as="geometry"/></mxCell><mxCell id="41" value="ID_Mapel (Primary Key)" style="shape=partialRectangle;html=1;whiteSpace=wrap;connectable=0;overflow=hidden;fillColor=none;top=0;left=0;bottom=0;right=0;pointerEvents=1;" parent="40" vertex="1"><mxGeometry width="180" height="40" as="geometry"><mxRectangle width="180" height="40" as="alternateBounds"/></mxGeometry></mxCell><mxCell id="42" value="" style="shape=tableRow;horizontal=0;startSize=0;swimlaneHead=0;swimlaneBody=0;top=0;left=0;bottom=0;right=0;collapsible=0;dropTarget=0;fillColor=none;points=[[0,0.5],[1,0.5]];portConstraint=eastwest;" parent="37" vertex="1"><mxGeometry y="80" width="180" height="40" as="geometry"/></mxCell><mxCell id="43" value="nama_mapel" style="shape=partialRectangle;html=1;whiteSpace=wrap;connectable=0;overflow=hidden;fillColor=none;top=0;left=0;bottom=0;right=0;pointerEvents=1;" parent="42" vertex="1"><mxGeometry width="180" height="40" as="geometry"><mxRectangle width="180" height="40" as="alternateBounds"/></mxGeometry></mxCell><mxCell id="44" value="" style="shape=tableRow;horizontal=0;startSize=0;swimlaneHead=0;swimlaneBody=0;top=0;left=0;bottom=0;right=0;collapsible=0;dropTarget=0;fillColor=none;points=[[0,0.5],[1,0.5]];portConstraint=eastwest;" parent="37" vertex="1"><mxGeometry y="120" width="180" height="40" as="geometry"/></mxCell><mxCell id="45" value="Deskripsi" style="shape=partialRectangle;html=1;whiteSpace=wrap;connectable=0;overflow=hidden;fillColor=none;top=0;left=0;bottom=0;right=0;pointerEvents=1;" parent="44" vertex="1"><mxGeometry width="180" height="40" as="geometry"><mxRectangle width="180" height="40" as="alternateBounds"/></mxGeometry></mxCell><mxCell id="46" value="" style="shape=tableRow;horizontal=0;startSize=0;swimlaneHead=0;swimlaneBody=0;top=0;left=0;bottom=0;right=0;collapsible=0;dropTarget=0;fillColor=none;points=[[0,0.5],[1,0.5]];portConstraint=eastwest;" parent="37" vertex="1"><mxGeometry y="160" width="180" height="40" as="geometry"/></mxCell><mxCell id="47" value="Bobot&amp;nbsp;" style="shape=partialRectangle;html=1;whiteSpace=wrap;connectable=0;overflow=hidden;fillColor=none;top=0;left=0;bottom=0;right=0;pointerEvents=1;" parent="46" vertex="1"><mxGeometry width="180" height="40" as="geometry"><mxRectangle width="180" height="40" as="alternateBounds"/></mxGeometry></mxCell><mxCell id="57" value="" style="shape=table;startSize=0;container=1;collapsible=0;childLayout=tableLayout;fontSize=14;" parent="1" vertex="1"><mxGeometry x="-545" y="390" width="200" height="170" as="geometry"/></mxCell><mxCell id="58" value="" style="shape=tableRow;horizontal=0;startSize=0;swimlaneHead=0;swimlaneBody=0;top=0;left=0;bottom=0;right=0;collapsible=0;dropTarget=0;fillColor=none;points=[[0,0.5],[1,0.5]];portConstraint=eastwest;fontSize=14;" parent="57" vertex="1"><mxGeometry width="200" height="40" as="geometry"/></mxCell><mxCell id="59" value="&lt;font style=&quot;font-size: 15px;&quot;&gt;Kriteria&amp;nbsp;&lt;/font&gt;" style="shape=partialRectangle;html=1;whiteSpace=wrap;connectable=0;overflow=hidden;fillColor=#1ba1e2;top=0;left=0;bottom=0;right=0;pointerEvents=1;fontSize=14;fontColor=#ffffff;strokeColor=#006EAF;" parent="58" vertex="1"><mxGeometry width="200" height="40" as="geometry"><mxRectangle width="200" height="40" as="alternateBounds"/></mxGeometry></mxCell><mxCell id="60" value="" style="shape=tableRow;horizontal=0;startSize=0;swimlaneHead=0;swimlaneBody=0;top=0;left=0;bottom=0;right=0;collapsible=0;dropTarget=0;fillColor=none;points=[[0,0.5],[1,0.5]];portConstraint=eastwest;fontSize=14;" parent="57" vertex="1"><mxGeometry y="40" width="200" height="40" as="geometry"/></mxCell><mxCell id="61" value="&lt;strong&gt;ID_Kriteria&lt;/strong&gt; (Primary Key)" style="shape=partialRectangle;html=1;whiteSpace=wrap;connectable=0;overflow=hidden;fillColor=none;top=0;left=0;bottom=0;right=0;pointerEvents=1;fontSize=14;" parent="60" vertex="1"><mxGeometry width="200" height="40" as="geometry"><mxRectangle width="200" height="40" as="alternateBounds"/></mxGeometry></mxCell><mxCell id="62" value="" style="shape=tableRow;horizontal=0;startSize=0;swimlaneHead=0;swimlaneBody=0;top=0;left=0;bottom=0;right=0;collapsible=0;dropTarget=0;fillColor=none;points=[[0,0.5],[1,0.5]];portConstraint=eastwest;fontSize=14;" parent="57" vertex="1"><mxGeometry y="80" width="200" height="40" as="geometry"/></mxCell><mxCell id="63" value="&lt;strong&gt;Nama_Kriteria&lt;/strong&gt;" style="shape=partialRectangle;html=1;whiteSpace=wrap;connectable=0;overflow=hidden;fillColor=none;top=0;left=0;bottom=0;right=0;pointerEvents=1;fontSize=14;" parent="62" vertex="1"><mxGeometry width="200" height="40" as="geometry"><mxRectangle width="200" height="40" as="alternateBounds"/></mxGeometry></mxCell><mxCell id="64" value="" style="shape=tableRow;horizontal=0;startSize=0;swimlaneHead=0;swimlaneBody=0;top=0;left=0;bottom=0;right=0;collapsible=0;dropTarget=0;fillColor=none;points=[[0,0.5],[1,0.5]];portConstraint=eastwest;fontSize=14;" parent="57" vertex="1"><mxGeometry y="120" width="200" height="50" as="geometry"/></mxCell><mxCell id="65" value="&lt;strong&gt;Bobot_Kriteria&lt;/strong&gt; (nilai bobot kriteria)" style="shape=partialRectangle;html=1;whiteSpace=wrap;connectable=0;overflow=hidden;fillColor=none;top=0;left=0;bottom=0;right=0;pointerEvents=1;fontSize=14;" parent="64" vertex="1"><mxGeometry width="200" height="50" as="geometry"><mxRectangle width="200" height="50" as="alternateBounds"/></mxGeometry></mxCell><mxCell id="VkJ5TcABdocI_Z8cLHhA-98" value="" style="shape=table;startSize=0;container=1;collapsible=0;childLayout=tableLayout;fontSize=13;" parent="1" vertex="1"><mxGeometry x="320" y="70" width="230" height="230" as="geometry"/></mxCell><mxCell id="VkJ5TcABdocI_Z8cLHhA-99" value="" style="shape=tableRow;horizontal=0;startSize=0;swimlaneHead=0;swimlaneBody=0;top=0;left=0;bottom=0;right=0;collapsible=0;dropTarget=0;fillColor=none;points=[[0,0.5],[1,0.5]];portConstraint=eastwest;fontSize=13;" parent="VkJ5TcABdocI_Z8cLHhA-98" vertex="1"><mxGeometry width="230" height="46" as="geometry"/></mxCell><mxCell id="VkJ5TcABdocI_Z8cLHhA-100" value="Rekomendasi" style="shape=partialRectangle;html=1;whiteSpace=wrap;connectable=0;overflow=hidden;fillColor=#1ba1e2;top=0;left=0;bottom=0;right=0;pointerEvents=1;fontSize=13;fontColor=#ffffff;strokeColor=#006EAF;" parent="VkJ5TcABdocI_Z8cLHhA-99" vertex="1"><mxGeometry width="230" height="46" as="geometry"><mxRectangle width="230" height="46" as="alternateBounds"/></mxGeometry></mxCell><mxCell id="VkJ5TcABdocI_Z8cLHhA-101" value="" style="shape=tableRow;horizontal=0;startSize=0;swimlaneHead=0;swimlaneBody=0;top=0;left=0;bottom=0;right=0;collapsible=0;dropTarget=0;fillColor=none;points=[[0,0.5],[1,0.5]];portConstraint=eastwest;fontSize=13;" parent="VkJ5TcABdocI_Z8cLHhA-98" vertex="1"><mxGeometry y="46" width="230" height="46" as="geometry"/></mxCell><mxCell id="VkJ5TcABdocI_Z8cLHhA-102" value="&lt;strong&gt;ID_Rekomendasi&lt;/strong&gt; (Primary Key)" style="shape=partialRectangle;html=1;whiteSpace=wrap;connectable=0;overflow=hidden;fillColor=none;top=0;left=0;bottom=0;right=0;pointerEvents=1;fontSize=13;" parent="VkJ5TcABdocI_Z8cLHhA-101" vertex="1"><mxGeometry width="230" height="46" as="geometry"><mxRectangle width="230" height="46" as="alternateBounds"/></mxGeometry></mxCell><mxCell id="VkJ5TcABdocI_Z8cLHhA-103" value="" style="shape=tableRow;horizontal=0;startSize=0;swimlaneHead=0;swimlaneBody=0;top=0;left=0;bottom=0;right=0;collapsible=0;dropTarget=0;fillColor=none;points=[[0,0.5],[1,0.5]];portConstraint=eastwest;fontSize=13;" parent="VkJ5TcABdocI_Z8cLHhA-98" vertex="1"><mxGeometry y="92" width="230" height="46" as="geometry"/></mxCell><mxCell id="VkJ5TcABdocI_Z8cLHhA-104" value="&lt;b&gt;ID_Siswa&amp;nbsp;&lt;/b&gt;(Foreign Key)" style="shape=partialRectangle;html=1;whiteSpace=wrap;connectable=0;overflow=hidden;fillColor=none;top=0;left=0;bottom=0;right=0;pointerEvents=1;fontSize=13;" parent="VkJ5TcABdocI_Z8cLHhA-103" vertex="1"><mxGeometry width="230" height="46" as="geometry"><mxRectangle width="230" height="46" as="alternateBounds"/></mxGeometry></mxCell><mxCell id="VkJ5TcABdocI_Z8cLHhA-105" value="" style="shape=tableRow;horizontal=0;startSize=0;swimlaneHead=0;swimlaneBody=0;top=0;left=0;bottom=0;right=0;collapsible=0;dropTarget=0;fillColor=none;points=[[0,0.5],[1,0.5]];portConstraint=eastwest;fontSize=13;" parent="VkJ5TcABdocI_Z8cLHhA-98" vertex="1"><mxGeometry y="138" width="230" height="46" as="geometry"/></mxCell><mxCell id="VkJ5TcABdocI_Z8cLHhA-106" value="&lt;strong&gt;ID_Mapel&lt;/strong&gt; (Foreign Key)" style="shape=partialRectangle;html=1;whiteSpace=wrap;connectable=0;overflow=hidden;fillColor=none;top=0;left=0;bottom=0;right=0;pointerEvents=1;fontSize=13;" parent="VkJ5TcABdocI_Z8cLHhA-105" vertex="1"><mxGeometry width="230" height="46" as="geometry"><mxRectangle width="230" height="46" as="alternateBounds"/></mxGeometry></mxCell><mxCell id="VkJ5TcABdocI_Z8cLHhA-107" value="" style="shape=tableRow;horizontal=0;startSize=0;swimlaneHead=0;swimlaneBody=0;top=0;left=0;bottom=0;right=0;collapsible=0;dropTarget=0;fillColor=none;points=[[0,0.5],[1,0.5]];portConstraint=eastwest;fontSize=13;" parent="VkJ5TcABdocI_Z8cLHhA-98" vertex="1"><mxGeometry y="184" width="230" height="46" as="geometry"/></mxCell><mxCell id="VkJ5TcABdocI_Z8cLHhA-108" value="Tanggal_Rekomendasi" style="shape=partialRectangle;html=1;whiteSpace=wrap;connectable=0;overflow=hidden;fillColor=none;top=0;left=0;bottom=0;right=0;pointerEvents=1;fontSize=13;" parent="VkJ5TcABdocI_Z8cLHhA-107" vertex="1"><mxGeometry width="230" height="46" as="geometry"><mxRectangle width="230" height="46" as="alternateBounds"/></mxGeometry></mxCell><mxCell id="113" value="" style="edgeStyle=none;html=1;movable=0;resizable=0;rotatable=0;deletable=0;editable=0;connectable=0;" parent="1" edge="1"><mxGeometry relative="1" as="geometry"><mxPoint x="-99.39393939393972" y="110" as="sourcePoint"/><mxPoint x="-94.54545454545473" y="120" as="targetPoint"/></mxGeometry></mxCell><mxCell id="116" value="" style="shape=table;startSize=0;container=1;collapsible=0;childLayout=tableLayout;" parent="1" vertex="1"><mxGeometry x="-225" y="50" width="260" height="253" as="geometry"/></mxCell><mxCell id="117" value="" style="shape=tableRow;horizontal=0;startSize=0;swimlaneHead=0;swimlaneBody=0;top=0;left=0;bottom=0;right=0;collapsible=0;dropTarget=0;fillColor=none;points=[[0,0.5],[1,0.5]];portConstraint=eastwest;" parent="116" vertex="1"><mxGeometry width="260" height="40" as="geometry"/></mxCell><mxCell id="118" value="NILAI SISWA" style="shape=partialRectangle;html=1;whiteSpace=wrap;connectable=0;overflow=hidden;fillColor=#1ba1e2;top=0;left=0;bottom=0;right=0;pointerEvents=1;fontColor=#ffffff;strokeColor=#006EAF;" parent="117" vertex="1"><mxGeometry width="260" height="40" as="geometry"><mxRectangle width="260" height="40" as="alternateBounds"/></mxGeometry></mxCell><mxCell id="119" value="" style="shape=tableRow;horizontal=0;startSize=0;swimlaneHead=0;swimlaneBody=0;top=0;left=0;bottom=0;right=0;collapsible=0;dropTarget=0;fillColor=none;points=[[0,0.5],[1,0.5]];portConstraint=eastwest;" parent="116" vertex="1"><mxGeometry y="40" width="260" height="40" as="geometry"/></mxCell><mxCell id="120" value="ID_Nilai&lt;br&gt;&lt;table&gt;&lt;tbody&gt;&lt;tr&gt;&lt;td&gt;INT (PK)&lt;/td&gt;&lt;/tr&gt;&lt;/tbody&gt;&lt;/table&gt;" style="shape=partialRectangle;html=1;whiteSpace=wrap;connectable=0;overflow=hidden;fillColor=none;top=0;left=0;bottom=0;right=0;pointerEvents=1;" parent="119" vertex="1"><mxGeometry width="260" height="40" as="geometry"><mxRectangle width="260" height="40" as="alternateBounds"/></mxGeometry></mxCell><mxCell id="121" value="" style="shape=tableRow;horizontal=0;startSize=0;swimlaneHead=0;swimlaneBody=0;top=0;left=0;bottom=0;right=0;collapsible=0;dropTarget=0;fillColor=none;points=[[0,0.5],[1,0.5]];portConstraint=eastwest;" parent="116" vertex="1"><mxGeometry y="80" width="260" height="43" as="geometry"/></mxCell><mxCell id="122" value="ID_Siswa INT (FK)" style="shape=partialRectangle;html=1;whiteSpace=wrap;connectable=0;overflow=hidden;fillColor=none;top=0;left=0;bottom=0;right=0;pointerEvents=1;" parent="121" vertex="1"><mxGeometry width="260" height="43" as="geometry"><mxRectangle width="260" height="43" as="alternateBounds"/></mxGeometry></mxCell><mxCell id="123" value="" style="shape=tableRow;horizontal=0;startSize=0;swimlaneHead=0;swimlaneBody=0;top=0;left=0;bottom=0;right=0;collapsible=0;dropTarget=0;fillColor=none;points=[[0,0.5],[1,0.5]];portConstraint=eastwest;" parent="116" vertex="1"><mxGeometry y="123" width="260" height="43" as="geometry"/></mxCell><mxCell id="124" value="ID_Mapel&lt;br&gt;&lt;table&gt;&lt;tbody&gt;&lt;tr&gt;&lt;td&gt;INT (FK)&lt;/td&gt;&lt;/tr&gt;&lt;/tbody&gt;&lt;/table&gt;" style="shape=partialRectangle;html=1;whiteSpace=wrap;connectable=0;overflow=hidden;fillColor=none;top=0;left=0;bottom=0;right=0;pointerEvents=1;" parent="123" vertex="1"><mxGeometry width="260" height="43" as="geometry"><mxRectangle width="260" height="43" as="alternateBounds"/></mxGeometry></mxCell><mxCell id="125" value="" style="shape=tableRow;horizontal=0;startSize=0;swimlaneHead=0;swimlaneBody=0;top=0;left=0;bottom=0;right=0;collapsible=0;dropTarget=0;fillColor=none;points=[[0,0.5],[1,0.5]];portConstraint=eastwest;" parent="116" vertex="1"><mxGeometry y="166" width="260" height="44" as="geometry"/></mxCell><mxCell id="126" value="&lt;font style=&quot;font-size: 11px;&quot;&gt;Nilai_Mapel&lt;/font&gt;&lt;br&gt;&lt;table style=&quot;font-size: 11px;&quot;&gt;&lt;tbody&gt;&lt;tr&gt;&lt;td&gt;&lt;font style=&quot;font-size: 11px;&quot;&gt;FLOAT&lt;/font&gt;&lt;/td&gt;&lt;/tr&gt;&lt;/tbody&gt;&lt;/table&gt;" style="shape=partialRectangle;html=1;whiteSpace=wrap;connectable=0;overflow=hidden;fillColor=none;top=0;left=0;bottom=0;right=0;pointerEvents=1;" parent="125" vertex="1"><mxGeometry width="260" height="44" as="geometry"><mxRectangle width="260" height="44" as="alternateBounds"/></mxGeometry></mxCell><mxCell id="127" value="" style="shape=tableRow;horizontal=0;startSize=0;swimlaneHead=0;swimlaneBody=0;top=0;left=0;bottom=0;right=0;collapsible=0;dropTarget=0;fillColor=none;points=[[0,0.5],[1,0.5]];portConstraint=eastwest;" parent="116" vertex="1"><mxGeometry y="210" width="260" height="43" as="geometry"/></mxCell><mxCell id="128" value="Nilai_IQ INT" style="shape=partialRectangle;html=1;whiteSpace=wrap;connectable=0;overflow=hidden;fillColor=none;top=0;left=0;bottom=0;right=0;pointerEvents=1;" parent="127" vertex="1"><mxGeometry width="260" height="43" as="geometry"><mxRectangle width="260" height="43" as="alternateBounds"/></mxGeometry></mxCell><mxCell id="132" style="edgeStyle=none;html=1;fontSize=11;entryX=0;entryY=0.5;entryDx=0;entryDy=0;" parent="1" target="123" edge="1"><mxGeometry relative="1" as="geometry"><mxPoint x="-450" y="554.5" as="targetPoint"/><mxPoint x="-350" y="100" as="sourcePoint"/><Array as="points"><mxPoint x="-310" y="100"/><mxPoint x="-310" y="195"/></Array></mxGeometry></mxCell><mxCell id="135" value="&lt;font style=&quot;font-size: 20px;&quot;&gt;1 : m&lt;/font&gt;" style="edgeLabel;html=1;align=center;verticalAlign=middle;resizable=0;points=[];fontSize=11;" parent="132" vertex="1" connectable="0"><mxGeometry x="0.1548" y="4" relative="1" as="geometry"><mxPoint x="7" y="-118" as="offset"/></mxGeometry></mxCell><mxCell id="139" value="&lt;span style=&quot;font-size: 20px;&quot;&gt;1 : m&lt;/span&gt;" style="edgeLabel;html=1;align=center;verticalAlign=middle;resizable=0;points=[];fontSize=11;" parent="1" vertex="1" connectable="0"><mxGeometry x="39.9970365249045" y="-19.997329493894767" as="geometry"><mxPoint x="62" y="-43" as="offset"/></mxGeometry></mxCell><mxCell id="142" value="&lt;font style=&quot;font-size: 20px;&quot;&gt;1 = &amp;gt; m&lt;/font&gt;" style="edgeLabel;html=1;align=center;verticalAlign=middle;resizable=0;points=[];fontSize=11;" parent="1" vertex="1" connectable="0"><mxGeometry x="239.9970365249045" y="110.00267050610523" as="geometry"><mxPoint x="219" y="-14" as="offset"/></mxGeometry></mxCell><mxCell id="146" value="&lt;font style=&quot;font-size: 20px;&quot;&gt;1 : m&lt;/font&gt;" style="edgeLabel;html=1;align=center;verticalAlign=middle;resizable=0;points=[];fontSize=11;" parent="1" vertex="1" connectable="0"><mxGeometry x="-40.0029634750955" y="410.00267050610523" as="geometry"><mxPoint x="-5" y="-18" as="offset"/></mxGeometry></mxCell><mxCell id="435" style="edgeStyle=none;html=1;exitX=0.5;exitY=1;exitDx=0;exitDy=0;fontSize=16;" parent="1" source="147" target="176" edge="1"><mxGeometry relative="1" as="geometry"/></mxCell><mxCell id="147" value="&lt;font style=&quot;font-size: 16px;&quot;&gt;aplikasi sistem&lt;/font&gt;" style="ellipse;whiteSpace=wrap;html=1;aspect=fixed;fontSize=20;" parent="1" vertex="1"><mxGeometry x="-65" y="1250" width="130" height="130" as="geometry"/></mxCell><mxCell id="151" style="edgeStyle=orthogonalEdgeStyle;curved=1;html=1;fontSize=16;" parent="1" source="148" target="147" edge="1"><mxGeometry relative="1" as="geometry"/></mxCell><mxCell id="148" value="Admin" style="rounded=1;whiteSpace=wrap;html=1;fontSize=16;" parent="1" vertex="1"><mxGeometry x="-425" y="1285" width="120" height="60" as="geometry"/></mxCell><mxCell id="154" style="edgeStyle=orthogonalEdgeStyle;curved=1;html=1;fontSize=16;" parent="1" source="150" target="147" edge="1"><mxGeometry relative="1" as="geometry"/></mxCell><mxCell id="150" value="siswa" style="rounded=1;whiteSpace=wrap;html=1;fontSize=16;" parent="1" vertex="1"><mxGeometry x="261" y="1285" width="120" height="60" as="geometry"/></mxCell><mxCell id="152" value="cek data siswa" style="text;strokeColor=none;align=center;fillColor=none;html=1;verticalAlign=middle;whiteSpace=wrap;rounded=0;fontSize=16;" parent="1" vertex="1"><mxGeometry x="-240" y="1235" width="100" height="50" as="geometry"/></mxCell><mxCell id="155" value="filter data" style="text;strokeColor=none;align=center;fillColor=none;html=1;verticalAlign=middle;whiteSpace=wrap;rounded=0;fontSize=16;" parent="1" vertex="1"><mxGeometry x="120" y="1235" width="90" height="40" as="geometry"/></mxCell><mxCell id="158" value="gambar level o" style="rounded=1;whiteSpace=wrap;html=1;fontSize=16;" parent="1" vertex="1"><mxGeometry x="-108.75" y="1190" width="212.5" height="50" as="geometry"/></mxCell><mxCell id="159" value="sistem rekomendasi&amp;nbsp; pemilihan mata pelajaran Berbasis Weight Product" style="rounded=0;whiteSpace=wrap;html=1;fontSize=16;" parent="1" vertex="1"><mxGeometry x="-220" y="1120" width="440" height="60" as="geometry"/></mxCell><mxCell id="169" style="edgeStyle=none;html=1;fontSize=16;" parent="1" source="161" target="162" edge="1"><mxGeometry relative="1" as="geometry"/></mxCell><mxCell id="195" style="edgeStyle=orthogonalEdgeStyle;html=1;fontSize=14;" parent="1" source="161" target="171" edge="1"><mxGeometry relative="1" as="geometry"><Array as="points"><mxPoint x="-350" y="1910"/></Array></mxGeometry></mxCell><mxCell id="161" value="siswa" style="rounded=1;whiteSpace=wrap;html=1;fontSize=16;" parent="1" vertex="1"><mxGeometry x="-410" y="1680" width="120" height="60" as="geometry"/></mxCell><mxCell id="170" style="edgeStyle=none;html=1;fontSize=15;" parent="1" source="162" target="168" edge="1"><mxGeometry relative="1" as="geometry"/></mxCell><mxCell id="436" style="edgeStyle=none;html=1;entryX=0.5;entryY=0;entryDx=0;entryDy=0;fontSize=16;" parent="1" source="162" target="171" edge="1"><mxGeometry relative="1" as="geometry"/></mxCell><mxCell id="162" value="&lt;font style=&quot;font-size: 14px;&quot;&gt;proses data siswa&lt;/font&gt;" style="ellipse;whiteSpace=wrap;html=1;aspect=fixed;fontSize=16;" parent="1" vertex="1"><mxGeometry x="-65" y="1650" width="130" height="130" as="geometry"/></mxCell><mxCell id="398" style="edgeStyle=none;html=1;" parent="1" source="168" target="397" edge="1"><mxGeometry relative="1" as="geometry"><mxPoint x="350" y="1740" as="sourcePoint"/></mxGeometry></mxCell><mxCell id="168" value="TB siswa" style="rounded=1;whiteSpace=wrap;html=1;fontSize=16;" parent="1" vertex="1"><mxGeometry x="287.5" y="1680" width="120" height="60" as="geometry"/></mxCell><mxCell id="181" style="edgeStyle=none;html=1;fontSize=15;" parent="1" source="171" target="180" edge="1"><mxGeometry relative="1" as="geometry"/></mxCell><mxCell id="438" style="edgeStyle=none;html=1;fontSize=16;" parent="1" source="171" target="197" edge="1"><mxGeometry relative="1" as="geometry"/></mxCell><mxCell id="171" value="proses data nilai" style="ellipse;whiteSpace=wrap;html=1;aspect=fixed;fontSize=15;" parent="1" vertex="1"><mxGeometry x="-65" y="1840" width="130" height="130" as="geometry"/></mxCell><mxCell id="174" value="TB mata_pelajaran" style="rounded=1;whiteSpace=wrap;html=1;fontSize=16;" parent="1" vertex="1"><mxGeometry x="280" y="1505" width="120" height="60" as="geometry"/></mxCell><mxCell id="177" style="edgeStyle=none;html=1;fontSize=15;" parent="1" source="175" target="176" edge="1"><mxGeometry relative="1" as="geometry"/></mxCell><mxCell id="201" style="edgeStyle=orthogonalEdgeStyle;html=1;entryX=0;entryY=0.5;entryDx=0;entryDy=0;fontSize=14;" parent="1" source="175" target="200" edge="1"><mxGeometry relative="1" as="geometry"><Array as="points"><mxPoint x="-510" y="1535"/><mxPoint x="-510" y="2295"/></Array></mxGeometry></mxCell><mxCell id="175" value="Admin" style="rounded=1;whiteSpace=wrap;html=1;fontSize=15;" parent="1" vertex="1"><mxGeometry x="-410" y="1505" width="120" height="60" as="geometry"/></mxCell><mxCell id="179" style="edgeStyle=none;html=1;fontSize=15;" parent="1" source="176" target="174" edge="1"><mxGeometry relative="1" as="geometry"/></mxCell><mxCell id="437" style="edgeStyle=none;html=1;entryX=0.5;entryY=0;entryDx=0;entryDy=0;fontSize=16;" parent="1" source="176" target="162" edge="1"><mxGeometry relative="1" as="geometry"/></mxCell><mxCell id="176" value="Proses data mata pelajaran" style="ellipse;whiteSpace=wrap;html=1;aspect=fixed;fontSize=15;" parent="1" vertex="1"><mxGeometry x="-65" y="1470" width="130" height="130" as="geometry"/></mxCell><mxCell id="198" style="edgeStyle=orthogonalEdgeStyle;html=1;fontSize=14;" parent="1" source="180" target="197" edge="1"><mxGeometry relative="1" as="geometry"><Array as="points"><mxPoint x="350" y="2100"/></Array></mxGeometry></mxCell><mxCell id="180" value="TB mata_pelajaran" style="rounded=1;whiteSpace=wrap;html=1;fontSize=16;" parent="1" vertex="1"><mxGeometry x="290" y="1870" width="120" height="60" as="geometry"/></mxCell><mxCell id="183" value="input data siswa" style="text;strokeColor=none;align=center;fillColor=none;html=1;verticalAlign=middle;whiteSpace=wrap;rounded=0;fontSize=14;" parent="1" vertex="1"><mxGeometry x="-240" y="1650" width="110" height="50" as="geometry"/></mxCell><mxCell id="184" value="menyimpan data" style="text;strokeColor=none;align=center;fillColor=none;html=1;verticalAlign=middle;whiteSpace=wrap;rounded=0;fontSize=14;" parent="1" vertex="1"><mxGeometry x="130" y="1480" width="110" height="50" as="geometry"/></mxCell><mxCell id="211" style="edgeStyle=orthogonalEdgeStyle;html=1;fontSize=14;" parent="1" source="197" target="210" edge="1"><mxGeometry relative="1" as="geometry"><Array as="points"><mxPoint x="-180" y="2100"/><mxPoint x="-180" y="2100"/></Array></mxGeometry></mxCell><mxCell id="439" style="edgeStyle=none;html=1;entryX=0.5;entryY=0;entryDx=0;entryDy=0;fontSize=16;" parent="1" source="197" target="200" edge="1"><mxGeometry relative="1" as="geometry"/></mxCell><mxCell id="197" value="proses rekomendasi" style="ellipse;whiteSpace=wrap;html=1;aspect=fixed;fontSize=15;" parent="1" vertex="1"><mxGeometry x="-65" y="2030" width="130" height="130" as="geometry"/></mxCell><mxCell id="199" value="input nilai siswa" style="text;strokeColor=none;align=center;fillColor=none;html=1;verticalAlign=middle;whiteSpace=wrap;rounded=0;fontSize=14;" parent="1" vertex="1"><mxGeometry x="-250" y="1860" width="110" height="50" as="geometry"/></mxCell><mxCell id="202" style="edgeStyle=orthogonalEdgeStyle;html=1;fontSize=14;" parent="1" source="200" edge="1"><mxGeometry relative="1" as="geometry"><mxPoint x="310" y="2295" as="targetPoint"/></mxGeometry></mxCell><mxCell id="200" value="kriteria" style="ellipse;whiteSpace=wrap;html=1;aspect=fixed;fontSize=15;" parent="1" vertex="1"><mxGeometry x="-65" y="2230" width="130" height="130" as="geometry"/></mxCell><mxCell id="204" value="tb Kriteria" style="rounded=1;whiteSpace=wrap;html=1;fontSize=14;" parent="1" vertex="1"><mxGeometry x="320" y="2265" width="120" height="60" as="geometry"/></mxCell><mxCell id="205" value="menyimpan data" style="text;strokeColor=none;align=center;fillColor=none;html=1;verticalAlign=middle;whiteSpace=wrap;rounded=0;fontSize=14;" parent="1" vertex="1"><mxGeometry x="120" y="1660" width="110" height="50" as="geometry"/></mxCell><mxCell id="206" value="menyimpan data" style="text;strokeColor=none;align=center;fillColor=none;html=1;verticalAlign=middle;whiteSpace=wrap;rounded=0;fontSize=14;" parent="1" vertex="1"><mxGeometry x="120" y="1850" width="110" height="50" as="geometry"/></mxCell><mxCell id="207" value="memproses hasil" style="text;strokeColor=none;align=center;fillColor=none;html=1;verticalAlign=middle;whiteSpace=wrap;rounded=0;fontSize=14;" parent="1" vertex="1"><mxGeometry x="-190" y="2060" width="60" height="30" as="geometry"/></mxCell><mxCell id="210" value="TB rekomendasi" style="rounded=0;whiteSpace=wrap;html=1;fontSize=14;" parent="1" vertex="1"><mxGeometry x="-380" y="2065" width="120" height="60" as="geometry"/></mxCell><mxCell id="213" value="pembobotan nilai" style="text;strokeColor=none;align=center;fillColor=none;html=1;verticalAlign=middle;whiteSpace=wrap;rounded=0;fontSize=14;" parent="1" vertex="1"><mxGeometry x="180" y="2060" width="60" height="30" as="geometry"/></mxCell><mxCell id="215" value="DATA&amp;nbsp; &amp;nbsp; &amp;nbsp; &amp;nbsp; &amp;nbsp; &amp;nbsp; &amp;nbsp; &amp;nbsp;FLOW&amp;nbsp; &amp;nbsp; &amp;nbsp; &amp;nbsp; &amp;nbsp; DIAGRAM" style="rounded=0;whiteSpace=wrap;html=1;fontSize=14;" parent="1" vertex="1"><mxGeometry x="-220" y="1040" width="440" height="60" as="geometry"/></mxCell><mxCell id="217" value="input mata pelajaran" style="text;strokeColor=none;align=center;fillColor=none;html=1;verticalAlign=middle;whiteSpace=wrap;rounded=0;fontSize=14;" parent="1" vertex="1"><mxGeometry x="-240" y="1480" width="110" height="50" as="geometry"/></mxCell><mxCell id="417" style="edgeStyle=none;html=1;entryX=0.455;entryY=0;entryDx=0;entryDy=0;entryPerimeter=0;fontSize=16;" parent="1" source="369" target="372" edge="1"><mxGeometry relative="1" as="geometry"/></mxCell><mxCell id="369" value="MULAI" style="rounded=1;whiteSpace=wrap;html=1;fontSize=14;arcSize=50;" parent="1" vertex="1"><mxGeometry x="-60" y="2640" width="120" height="60" as="geometry"/></mxCell><mxCell id="371" value="FLOW CHART&amp;nbsp;" style="rounded=0;whiteSpace=wrap;html=1;fontSize=14;" parent="1" vertex="1"><mxGeometry x="-285" y="2510" width="570" height="60" as="geometry"/></mxCell><mxCell id="418" style="edgeStyle=none;html=1;entryX=0.5;entryY=0;entryDx=0;entryDy=0;fontSize=16;exitX=0.456;exitY=1.024;exitDx=0;exitDy=0;exitPerimeter=0;" parent="1" source="372" target="374" edge="1"><mxGeometry relative="1" as="geometry"/></mxCell><mxCell id="372" value="PROSES&lt;br&gt;REQUIRTMEN" style="whiteSpace=wrap;html=1;aspect=fixed;rounded=1;fontSize=14;" parent="1" vertex="1"><mxGeometry x="-50" y="2750" width="110" height="110" as="geometry"/></mxCell><mxCell id="419" style="edgeStyle=none;html=1;fontSize=16;" parent="1" source="374" target="375" edge="1"><mxGeometry relative="1" as="geometry"/></mxCell><mxCell id="374" value="INPUT MATA PELAJARAN" style="shape=parallelogram;perimeter=parallelogramPerimeter;whiteSpace=wrap;html=1;fixedSize=1;rounded=1;fontSize=14;" parent="1" vertex="1"><mxGeometry x="-75" y="2910" width="150" height="60" as="geometry"/></mxCell><mxCell id="420" style="edgeStyle=none;html=1;entryX=0.5;entryY=0;entryDx=0;entryDy=0;fontSize=16;" parent="1" source="375" target="376" edge="1"><mxGeometry relative="1" as="geometry"/></mxCell><mxCell id="375" value="INPUT DATA SISWA" style="shape=parallelogram;perimeter=parallelogramPerimeter;whiteSpace=wrap;html=1;fixedSize=1;rounded=1;fontSize=14;" parent="1" vertex="1"><mxGeometry x="-85" y="3010" width="170" height="60" as="geometry"/></mxCell><mxCell id="421" style="edgeStyle=none;html=1;fontSize=16;" parent="1" source="376" target="378" edge="1"><mxGeometry relative="1" as="geometry"/></mxCell><mxCell id="376" value="INPUT NILAI SISWA&amp;nbsp;" style="shape=parallelogram;perimeter=parallelogramPerimeter;whiteSpace=wrap;html=1;fixedSize=1;rounded=1;fontSize=14;" parent="1" vertex="1"><mxGeometry x="-85" y="3100" width="170" height="60" as="geometry"/></mxCell><mxCell id="422" style="edgeStyle=none;html=1;fontSize=16;" parent="1" source="378" target="394" edge="1"><mxGeometry relative="1" as="geometry"/></mxCell><mxCell id="378" value="PROSES PEMBOBOTAN" style="whiteSpace=wrap;html=1;aspect=fixed;rounded=1;fontSize=14;" parent="1" vertex="1"><mxGeometry x="-50" y="3190" width="105" height="105" as="geometry"/></mxCell><mxCell id="381" style="edgeStyle=orthogonalEdgeStyle;html=1;entryX=0;entryY=0.5;entryDx=0;entryDy=0;fontSize=14;" parent="1" source="379" edge="1"><mxGeometry relative="1" as="geometry"><mxPoint x="210" y="3475" as="targetPoint"/></mxGeometry></mxCell><mxCell id="431" style="edgeStyle=none;html=1;fontSize=16;" parent="1" source="379" target="388" edge="1"><mxGeometry relative="1" as="geometry"/></mxCell><mxCell id="432" style="edgeStyle=none;html=1;entryX=0.533;entryY=0.167;entryDx=0;entryDy=0;entryPerimeter=0;fontSize=16;" parent="1" source="379" target="389" edge="1"><mxGeometry relative="1" as="geometry"/></mxCell><mxCell id="379" value="KRITERIA" style="rhombus;whiteSpace=wrap;html=1;rounded=1;fontSize=14;" parent="1" vertex="1"><mxGeometry x="-65" y="3400" width="130" height="150" as="geometry"/></mxCell><mxCell id="385" style="edgeStyle=orthogonalEdgeStyle;html=1;fontSize=14;exitX=1;exitY=0.5;exitDx=0;exitDy=0;" parent="1" source="388" edge="1"><mxGeometry relative="1" as="geometry"><mxPoint y="3760" as="targetPoint"/><mxPoint x="330" y="3475" as="sourcePoint"/><Array as="points"><mxPoint x="380" y="3475"/><mxPoint x="380" y="3760"/></Array></mxGeometry></mxCell><mxCell id="387" value="SELESAI" style="rounded=1;whiteSpace=wrap;html=1;fontSize=14;arcSize=50;" parent="1" vertex="1"><mxGeometry x="-60" y="3800" width="120" height="60" as="geometry"/></mxCell><mxCell id="388" value="KELOMPOK 1" style="shape=parallelogram;perimeter=parallelogramPerimeter;whiteSpace=wrap;html=1;fixedSize=1;rounded=1;fontSize=14;" parent="1" vertex="1"><mxGeometry x="130" y="3442.5" width="130" height="65" as="geometry"/></mxCell><mxCell id="433" style="edgeStyle=none;html=1;fontSize=16;" parent="1" source="389" target="387" edge="1"><mxGeometry relative="1" as="geometry"/></mxCell><mxCell id="389" value="KELOMPOK 4" style="shape=parallelogram;perimeter=parallelogramPerimeter;whiteSpace=wrap;html=1;fixedSize=1;rounded=1;fontSize=14;fontStyle=1" parent="1" vertex="1"><mxGeometry x="-77.5" y="3610" width="150" height="60" as="geometry"/></mxCell><mxCell id="392" value="ENTITY RELATIONSHIP DIAGRAM" style="rounded=0;whiteSpace=wrap;html=1;fontSize=14;" parent="1" vertex="1"><mxGeometry x="-282.5" y="-440" width="570" height="60" as="geometry"/></mxCell><mxCell id="423" style="edgeStyle=none;html=1;fontSize=16;" parent="1" source="394" edge="1"><mxGeometry relative="1" as="geometry"><mxPoint y="3400" as="targetPoint"/><Array as="points"><mxPoint y="3400"/></Array></mxGeometry></mxCell><mxCell id="394" value="RUMUS WEIGHT PORODUCT" style="rounded=1;whiteSpace=wrap;html=1;fontSize=14;" parent="1" vertex="1"><mxGeometry x="-57.5" y="3320" width="120" height="60" as="geometry"/></mxCell><mxCell id="434" style="edgeStyle=none;html=1;entryX=0.476;entryY=0.024;entryDx=0;entryDy=0;fontSize=16;exitX=0.5;exitY=1;exitDx=0;exitDy=0;entryPerimeter=0;" parent="1" source="397" target="180" edge="1"><mxGeometry relative="1" as="geometry"/></mxCell><mxCell id="397" value="&lt;font style=&quot;font-size: 16px;&quot;&gt;Data Nilai&lt;/font&gt;" style="rounded=1;whiteSpace=wrap;html=1;" parent="1" vertex="1"><mxGeometry x="287.5" y="1780" width="120" height="60" as="geometry"/></mxCell><mxCell id="400" value="" style="shape=table;startSize=0;container=1;collapsible=0;childLayout=tableLayout;" parent="1" vertex="1"><mxGeometry x="-220" y="-250" width="250" height="260" as="geometry"/></mxCell><mxCell id="401" value="" style="shape=tableRow;horizontal=0;startSize=0;swimlaneHead=0;swimlaneBody=0;top=0;left=0;bottom=0;right=0;collapsible=0;dropTarget=0;fillColor=none;points=[[0,0.5],[1,0.5]];portConstraint=eastwest;" parent="400" vertex="1"><mxGeometry width="250" height="52" as="geometry"/></mxCell><mxCell id="402" value="&lt;font style=&quot;font-size: 16px;&quot;&gt;siswa&lt;/font&gt;" style="shape=partialRectangle;html=1;whiteSpace=wrap;connectable=0;overflow=hidden;fillColor=#1ba1e2;top=0;left=0;bottom=0;right=0;pointerEvents=1;fontColor=#ffffff;strokeColor=#006EAF;" parent="401" vertex="1"><mxGeometry width="250" height="52" as="geometry"><mxRectangle width="250" height="52" as="alternateBounds"/></mxGeometry></mxCell><mxCell id="403" value="" style="shape=tableRow;horizontal=0;startSize=0;swimlaneHead=0;swimlaneBody=0;top=0;left=0;bottom=0;right=0;collapsible=0;dropTarget=0;fillColor=none;points=[[0,0.5],[1,0.5]];portConstraint=eastwest;" parent="400" vertex="1"><mxGeometry y="52" width="250" height="52" as="geometry"/></mxCell><mxCell id="404" value="ID_Sswa" style="shape=partialRectangle;html=1;whiteSpace=wrap;connectable=0;overflow=hidden;fillColor=none;top=0;left=0;bottom=0;right=0;pointerEvents=1;" parent="403" vertex="1"><mxGeometry width="250" height="52" as="geometry"><mxRectangle width="250" height="52" as="alternateBounds"/></mxGeometry></mxCell><mxCell id="405" value="" style="shape=tableRow;horizontal=0;startSize=0;swimlaneHead=0;swimlaneBody=0;top=0;left=0;bottom=0;right=0;collapsible=0;dropTarget=0;fillColor=none;points=[[0,0.5],[1,0.5]];portConstraint=eastwest;" parent="400" vertex="1"><mxGeometry y="104" width="250" height="52" as="geometry"/></mxCell><mxCell id="406" value="Nama" style="shape=partialRectangle;html=1;whiteSpace=wrap;connectable=0;overflow=hidden;fillColor=none;top=0;left=0;bottom=0;right=0;pointerEvents=1;" parent="405" vertex="1"><mxGeometry width="250" height="52" as="geometry"><mxRectangle width="250" height="52" as="alternateBounds"/></mxGeometry></mxCell><mxCell id="407" value="" style="shape=tableRow;horizontal=0;startSize=0;swimlaneHead=0;swimlaneBody=0;top=0;left=0;bottom=0;right=0;collapsible=0;dropTarget=0;fillColor=none;points=[[0,0.5],[1,0.5]];portConstraint=eastwest;" parent="400" vertex="1"><mxGeometry y="156" width="250" height="52" as="geometry"/></mxCell><mxCell id="408" value="NIDN" style="shape=partialRectangle;html=1;whiteSpace=wrap;connectable=0;overflow=hidden;fillColor=none;top=0;left=0;bottom=0;right=0;pointerEvents=1;" parent="407" vertex="1"><mxGeometry width="250" height="52" as="geometry"><mxRectangle width="250" height="52" as="alternateBounds"/></mxGeometry></mxCell><mxCell id="409" value="" style="shape=tableRow;horizontal=0;startSize=0;swimlaneHead=0;swimlaneBody=0;top=0;left=0;bottom=0;right=0;collapsible=0;dropTarget=0;fillColor=none;points=[[0,0.5],[1,0.5]];portConstraint=eastwest;" parent="400" vertex="1"><mxGeometry y="208" width="250" height="52" as="geometry"/></mxCell><mxCell id="410" value="KELAS" style="shape=partialRectangle;html=1;whiteSpace=wrap;connectable=0;overflow=hidden;fillColor=none;top=0;left=0;bottom=0;right=0;pointerEvents=1;" parent="409" vertex="1"><mxGeometry width="250" height="52" as="geometry"><mxRectangle width="250" height="52" as="alternateBounds"/></mxGeometry></mxCell><mxCell id="411" style="edgeStyle=none;html=1;entryX=0;entryY=0.5;entryDx=0;entryDy=0;fontSize=16;" parent="1" target="VkJ5TcABdocI_Z8cLHhA-98" edge="1"><mxGeometry relative="1" as="geometry"><mxPoint x="30" y="-182" as="sourcePoint"/><Array as="points"><mxPoint x="200" y="-182"/><mxPoint x="200" y="185"/></Array></mxGeometry></mxCell><mxCell id="412" style="edgeStyle=none;html=1;fontSize=16;entryX=1;entryY=0.5;entryDx=0;entryDy=0;" parent="1" source="403" target="119" edge="1"><mxGeometry relative="1" as="geometry"><Array as="points"><mxPoint x="160" y="-170"/><mxPoint x="160" y="110"/></Array></mxGeometry></mxCell><mxCell id="415" style="edgeStyle=none;html=1;fontSize=16;" parent="1" target="VkJ5TcABdocI_Z8cLHhA-105" edge="1"><mxGeometry relative="1" as="geometry"><mxPoint x="-350" y="124" as="sourcePoint"/><Array as="points"><mxPoint x="-320" y="124"/><mxPoint x="-320" y="360"/><mxPoint x="-150" y="360"/><mxPoint x="240" y="360"/><mxPoint x="240" y="231"/></Array></mxGeometry></mxCell><mxCell id="425" value="KELOMPOK 3" style="shape=parallelogram;perimeter=parallelogramPerimeter;whiteSpace=wrap;html=1;fixedSize=1;fontSize=16;rounded=1;" parent="1" vertex="1"><mxGeometry x="101" y="3730" width="160" height="60" as="geometry"/></mxCell><mxCell id="428" value="KELOMPOK 2" style="shape=parallelogram;perimeter=parallelogramPerimeter;whiteSpace=wrap;html=1;fixedSize=1;fontSize=16;rounded=1;" parent="1" vertex="1"><mxGeometry x="300" y="3600" width="160" height="60" as="geometry"/></mxCell><mxCell id="440" value="&lt;font style=&quot;font-size: 20px;&quot;&gt;1 : m&lt;/font&gt;" style="edgeLabel;html=1;align=center;verticalAlign=middle;resizable=0;points=[];fontSize=11;" parent="1" vertex="1" connectable="0"><mxGeometry x="261" y="-50.00157894736833" as="geometry"><mxPoint x="-22" y="-13" as="offset"/></mxGeometry></mxCell></root></mxGraphModel></diagram></mxfile>